<?xml version="1.0" encoding="utf-8"?>
<!-- Generator: Adobe Illustrator 24.1.1, SVG Export Plug-In . SVG Version: 6.00 Build 0)  -->
<svg version="1.1" id="Layer_1" xmlns="http://www.w3.org/2000/svg" xmlns:xlink="http://www.w3.org/1999/xlink" x="0px" y="0px"
	 viewBox="0 0 512 512" style="enable-background:new 0 0 512 512;" xml:space="preserve">
<g>
	<path d="M512,257.6c0-141.4-114.7-256-256-256C114.6,1.6,0,116.1,0,257.6c0,127.7,93.6,233.7,216,252.8V331.6h-65v-74h65v-56.4
		c0-64.1,38.2-99.6,96.7-99.6c28,0,57.3,5,57.3,5v63h-32.3c-31.7,0-41.7,19.8-41.7,40v48h71l-11.4,74H296v178.8
		C418.3,491.2,512,385.3,512,257.6L512,257.6z"/>
</g>
</svg>
