<?xml version="1.0" encoding="utf-8"?>
<!-- Generator: Adobe Illustrator 19.0.0, SVG Export Plug-In . SVG Version: 6.00 Build 0)  -->
<svg version="1.1" id="Layer_1" xmlns="http://www.w3.org/2000/svg" xmlns:xlink="http://www.w3.org/1999/xlink" x="0px" y="0px"
	 viewBox="0 0 512 512" style="enable-background:new 0 0 512 512;" xml:space="preserve">
<g id="XMLID_2_">
	<path id="XMLID_7_" d="M81.9,113.6c0,5.6-1.9,10.2-6.5,14c-3.7,3.7-9.3,6.5-14,6.5c-5.6,0-10.2-1.9-14.9-6.5
		c-4.7-4.7-5.6-9.3-5.6-14c0-5.6,1.9-10.2,5.6-14.9s8.4-5.6,14.9-5.6c5.6,0,10.2,1.9,14,5.6C80.1,103.3,81.9,108,81.9,113.6z
		 M133.1,277.4V72.6c0-5.6-1.9-10.2-6.5-14c-3.7-3.7-9.3-6.5-14-6.5H20.5c-5.6,0-10.2,1.9-14,6.5C2.8,62.4,0,68,0,72.6v204.8
		c0,5.6,1.9,10.2,6.5,14c3.7,3.7,9.3,6.5,14,6.5h92.2c5.6,0,10.2-1.9,14-6.5C131.3,287.7,133.1,283,133.1,277.4z M494.3,229.9
		c12.1,13,17.7,28.9,17.7,47.5c0,16.8-6.5,30.7-18.6,42.8c-12.1,12.1-26.1,18.6-42.8,18.6h-88.4c0.9,2.8,1.9,5.6,2.8,7.4
		c0.9,1.9,1.9,4.7,3.7,7.4c1.9,2.8,2.8,4.7,2.8,5.6c3.7,7.4,6.5,14,8.4,18.6s3.7,10.2,6.5,18.6c1.9,8.4,2.8,16.8,2.8,24.2
		c0,5.6,0,9.3,0,12.1s-0.9,8.4-1.9,14c-0.9,6.5-1.9,12.1-3.7,15.8c-1.9,4.7-3.7,9.3-7.4,14c-3.7,5.6-7.4,9.3-13,13
		c-4.7,3.7-11.2,6.5-19.5,8.4c-7.4,1.9-16.8,3.7-26.1,3.7c-5.6,0-10.2-1.9-14-6.5c-4.7-4.7-7.4-9.3-11.2-15.8
		c-2.8-6.5-4.7-12.1-6.5-16.8c-1.9-4.7-2.8-11.2-3.7-19.5c-1.9-9.3-3.7-15.8-4.7-19.5c-0.9-3.7-2.8-9.3-5.6-15.8
		s-6.5-11.2-10.2-14.9c-7.4-7.4-17.7-19.5-32.6-38.2c-10.2-14-21.4-27-32.6-39.1c-11.2-12.1-19.5-18.6-24.2-18.6
		c-5.6,0-10.2-2.8-14-6.5c-3.7-3.7-5.6-8.4-5.6-14V71.7c0-5.6,1.9-10.2,6.5-14c4.7-3.7,9.3-5.6,14-6.5c7.4,0,24.2-4.7,50.3-14
		c16.8-5.6,28.9-9.3,38.2-13c9.3-2.8,22.3-5.6,39.1-9.3c16.8-3.7,31.7-4.7,46.5-4.7h41c27.9,0,49.3,8.4,63.3,25.1
		c12.1,14.9,17.7,34.4,15.8,57.7c8.4,7.4,14,17.7,17.7,29.8c3.7,13,3.7,25.1,0,37.2c10.2,13,14,27.9,14,43.8
		C499,212.2,498,220.6,494.3,229.9z"/>
</g>
</svg>
