<?xml version="1.0" encoding="utf-8"?>
<!-- Generator: Adobe Illustrator 19.0.0, SVG Export Plug-In . SVG Version: 6.00 Build 0)  -->
<svg version="1.1" id="Layer_1" xmlns="http://www.w3.org/2000/svg" xmlns:xlink="http://www.w3.org/1999/xlink" x="0px" y="0px"
	 viewBox="0 0 512 512" style="enable-background:new 0 0 512 512;" xml:space="preserve">
<g id="XMLID_2_">
	<path id="XMLID_7_" d="M81.9,399.8c0-5.6-1.9-10.2-6.5-14c-3.7-3.7-9.3-6.5-14-6.5c-5.6,0-10.2,1.9-14.9,6.5
		c-3.7,3.7-5.6,9.3-5.6,14c0,5.6,1.9,10.2,5.6,14.9c3.7,3.7,8.4,5.6,14.9,5.6c5.6,0,10.2-1.9,14-5.6
		C80.1,410.1,81.9,405.4,81.9,399.8z M133.1,236v204.8c0,5.6-1.9,10.2-6.5,14c-3.7,3.7-9.3,6.5-14,6.5H20.5c-5.6,0-10.2-1.9-14-6.5
		c-3.7-3.7-6.5-9.3-6.5-14V236c0-5.6,1.9-10.2,6.5-14c3.7-3.7,9.3-6.5,14-6.5h92.2c5.6,0,10.2,1.9,14,6.5
		C131.3,225.7,133.1,230.4,133.1,236z M512,236c0,18.6-5.6,34.4-17.7,47.5c2.8,9.3,4.7,17.7,4.7,24.2c0.9,15.8-3.7,30.7-14,43.8
		c3.7,12.1,3.7,24.2,0,37.2c-2.8,12.1-9.3,22.3-17.7,29.8c1.9,24.2-3.7,42.8-15.8,57.7c-14,15.8-34.4,24.2-63.3,25.1h-41
		c-14,0-29.8-1.9-46.5-4.7c-16.8-3.7-29.8-6.5-39.1-9.3c-9.3-2.8-22.3-7.4-38.2-13c-26.1-9.3-42.8-14-50.3-14
		c-5.6,0-10.2-1.9-14-6.5c-3.7-4.7-5.6-7.4-5.6-13V236c0-5.6,1.9-10.2,5.6-14c3.7-3.7,8.4-6.5,14-6.5c4.7,0,13-6.5,24.2-18.6
		c11.2-12.1,21.4-25.1,32.6-39.1c14.9-18.6,25.1-31.7,32.6-38.2c3.7-3.7,7.4-9.3,10.2-14.9c2.8-6.5,4.7-11.2,5.6-15.8
		c0.9-4.7,2.8-10.2,4.7-19.5c1.9-8.4,2.8-14.9,3.7-19.5s2.8-10.2,6.5-16.8c2.8-6.5,6.5-12.1,11.2-15.8c3.7-3.7,9.3-6.5,14-6.5
		c10.2,0,18.6,0.9,26.1,3.7c7.4,1.9,14,4.7,19.5,8.4c4.7,3.7,9.3,7.4,13,13c3.7,5.6,6.5,10.2,7.4,14c1.9,4.7,2.8,9.3,3.7,15.8
		s1.9,11.2,1.9,14s0,7.4,0,12.1c0,8.4-0.9,15.8-2.8,24.2c-1.9,8.4-3.7,14.9-6.5,19.5s-4.7,10.2-8.4,17.7c-0.9,0.9-1.9,2.8-2.8,5.6
		c-1.9,2.8-2.8,4.7-3.7,7.4c-0.9,1.9-1.9,4.7-2.8,7.4h88.4c16.8,0,30.7,6.5,42.8,18.6C505.5,205.3,512,219.2,512,236z"/>
</g>
</svg>
